<svg width="32" height="33" viewBox="0 0 32 33" fill="none" xmlns="http://www.w3.org/2000/svg">
<circle cx="16" cy="16.1538" r="16" fill="white"/>
<path d="M14.5 21.1537C14.3684 21.1545 14.2379 21.1293 14.1161 21.0795C13.9943 21.0297 13.8834 20.9564 13.79 20.8637C13.6963 20.7708 13.6219 20.6602 13.5711 20.5383C13.5203 20.4165 13.4942 20.2857 13.4942 20.1537C13.4942 20.0217 13.5203 19.891 13.5711 19.7692C13.6219 19.6473 13.6963 19.5367 13.79 19.4437L17.1 16.1537L13.92 12.8437C13.7337 12.6564 13.6292 12.4029 13.6292 12.1387C13.6292 11.8746 13.7337 11.6211 13.92 11.4337C14.013 11.34 14.1236 11.2656 14.2454 11.2148C14.3673 11.1641 14.498 11.1379 14.63 11.1379C14.762 11.1379 14.8927 11.1641 15.0146 11.2148C15.1364 11.2656 15.247 11.34 15.34 11.4337L19.2 15.4337C19.3832 15.6207 19.4859 15.872 19.4859 16.1337C19.4859 16.3955 19.3832 16.6468 19.2 16.8337L15.2 20.8337C15.1102 20.9307 15.0022 21.0089 14.882 21.0638C14.7619 21.1187 14.632 21.1493 14.5 21.1537Z" fill="#3671E9"/>
</svg>
