<svg width="24" height="25" viewBox="0 0 24 25" fill="none" xmlns="http://www.w3.org/2000/svg">
<path d="M17.7103 11.7898L12.7103 6.78984C12.6152 6.69879 12.5031 6.62743 12.3803 6.57984C12.1369 6.47982 11.8638 6.47982 11.6203 6.57984C11.4976 6.62743 11.3854 6.69879 11.2903 6.78984L6.29032 11.7898C6.19708 11.8831 6.12312 11.9938 6.07266 12.1156C6.0222 12.2374 5.99622 12.368 5.99622 12.4998C5.99622 12.7661 6.10201 13.0215 6.29032 13.2098C6.47862 13.3981 6.73401 13.5039 7.00032 13.5039C7.26662 13.5039 7.52201 13.3981 7.71032 13.2098L11.0003 9.90984V17.4998C11.0003 17.7651 11.1057 18.0194 11.2932 18.2069C11.4807 18.3945 11.7351 18.4998 12.0003 18.4998C12.2655 18.4998 12.5199 18.3945 12.7074 18.2069C12.895 18.0194 13.0003 17.7651 13.0003 17.4998V9.90984L16.2903 13.2098C16.3833 13.3036 16.4939 13.378 16.6157 13.4287C16.7376 13.4795 16.8683 13.5056 17.0003 13.5056C17.1323 13.5056 17.263 13.4795 17.3849 13.4287C17.5068 13.378 17.6174 13.3036 17.7103 13.2098C17.804 13.1169 17.8784 13.0063 17.9292 12.8844C17.98 12.7626 18.0061 12.6318 18.0061 12.4998C18.0061 12.3678 17.98 12.2371 17.9292 12.1153C17.8784 11.9934 17.804 11.8828 17.7103 11.7898Z" fill="#FD8589"/>
</svg>
