 <svg
    className="group-134"
    width="143"
    height="180"
    viewBox="0 0 143 180"
    fill="none"
    xmlns="http://www.w3.org/2000/svg"
  >
    <path
      fill-rule="evenodd"
      clip-rule="evenodd"
      d="M61.594 41.2158C58.8627 41.3995 56.1859 42.0138 53.6087 43.0912C34.2089 51.2013 27.796 82.4819 39.2851 112.958C50.7742 143.435 75.8145 161.566 95.2143 153.456C97.0351 152.695 98.7415 151.729 100.329 150.58L90.2298 122.065C88.7862 123.834 87.0319 125.201 84.9898 126.055C75.2899 130.11 62.7698 121.044 57.0253 105.806C51.2808 90.568 54.4872 74.9278 64.1871 70.8728C66.6164 69.8572 69.2225 69.6646 71.8548 70.1858L61.594 41.2158Z"
      fill="#D9D9D9"
    />
    <rect
      x="40.6279"
      y="21.5921"
      width="18"
      height="73.2086"
      transform="rotate(-31.3831 40.6279 21.5921)"
      fill="#D9D9D9"
    />
    <rect
      x="81.392"
      y="118.079"
      width="48"
      height="8"
      transform="rotate(-19.5035 81.392 118.079)"
      fill="#D9D9D9"
    />
    <rect
      x="40.8203"
      y="147.302"
      width="96"
      height="34"
      transform="rotate(-19.5035 40.8203 147.302)"
      fill="#D9D9D9"
    />
  </svg>

 